<svg viewBox="0 0 98 75" xmlns="http://www.w3.org/2000/svg"><path d="m62.258 44.654h-42.028v-33.009h57.026v19.825z" fill="#d1e0e0"/><g stroke-miterlimit="10"><g fill="none" stroke="#333" stroke-width="2"><path d="m34.063 70.192h29.359" stroke-linecap="round"/><path d="m39.662 60.776-.986 9.407m19.147-9.407.986 9.407m21.091-9.55h-62.315a2 2 0 0 1 -2-2v-49.633a2 2 0 0 1 2-2h62.315a2 2 0 0 1 2 2v49.633a2 2 0 0 1 -2 2zm-64.234-11.272h66.153"/></g><path d="m30.467 7h-27.088v20.861h4.614v5.103l5.608-5.031.081-.072h16.785z" fill="none" stroke="#fff" stroke-width="5"/><g stroke="#333" stroke-width="2"><path d="m30.467 7h-27.088v20.861h4.614v5.103l5.608-5.031.081-.072h16.785z" fill="#fff"/><path d="m8.62 17.574h16.19m-16.19 4.75h8.956m-8.956-9.501h16.19" fill="none"/></g><path d="m70.743 41.594a9.109 9.109 0 0 0 -3.358 7.086c0 .44-.357.796-.796.796h-9.107a.796.796 0 0 1 -.796-.796v-.012c0-2.738-1.211-5.349-3.339-7.071-3.62-2.929-5.732-7.647-4.99-12.809.882-6.137 5.946-11.014 12.108-11.697 8.347-.925 15.416 5.586 15.416 13.748a13.809 13.809 0 0 1 -5.138 10.755zm-4.02 12.422h-9.599v2h9.599zm0 5.138h-9.599v2h9.599z" fill="#fff" stroke="#fff" stroke-width="6"/></g><path d="m62.043 20.824c-5.541 0-10.033 4.492-10.033 10.033 0 5.54 4.492 10.033 10.033 10.033s10.034-4.493 10.034-10.033c0-5.541-4.493-10.033-10.034-10.033z" fill="#f15d21"/><path d="m75.88 30.857c0-8.161-7.069-14.672-15.416-13.748-6.162.683-11.226 5.56-12.108 11.697-.742 5.162 1.371 9.879 4.99 12.809 2.129 1.723 3.339 4.333 3.339 7.071v.012c0 .44.357.796.796.796h9.107c.44 0 .796-.357.796-.796a9.107 9.107 0 0 1 3.358-7.086 13.8 13.8 0 0 0 5.138-10.755z" fill="none" stroke="#333" stroke-miterlimit="10" stroke-width="2"/><path d="m59.984 34.231h-2.06a2.06 2.06 0 1 1 0-4.12 2.06 2.06 0 0 1 2.06 2.06zm0 10.133v-10.133h4.12v10.133m2.06-10.133h-2.06v-2.06a2.06 2.06 0 1 1 4.12 0 2.06 2.06 0 0 1 -2.06 2.06z" fill="none" stroke="#fff" stroke-linecap="round" stroke-miterlimit="10" stroke-width="1.5"/><path d="m56.623 55.034h10.6m-10.6 5.639h10.6" fill="none" stroke="#333" stroke-miterlimit="10" stroke-width="2"/></svg>