<svg viewBox="0 0 98 75" xmlns="http://www.w3.org/2000/svg"><path d="m20.23 11.645h57.026v33.009h-57.026z" fill="#d1e0e0"/><g stroke-miterlimit="10"><g fill="none" stroke="#333" stroke-width="2"><path d="m34.063 70.192h29.359" stroke-linecap="round"/><path d="m39.662 60.776-.986 9.407m19.147-9.407.986 9.407m21.091-9.55h-62.315a2 2 0 0 1 -2-2v-49.633a2 2 0 0 1 2-2h62.315a2 2 0 0 1 2 2v49.633a2 2 0 0 1 -2 2zm-64.234-11.272h66.153"/><path d="m45.489 54.997h6.507" stroke-linecap="round"/></g><path d="m30.467 7h-27.088v20.861h4.614v5.103l5.608-5.031.081-.072h16.785z" fill="none" stroke="#fff" stroke-width="5"/><g stroke="#333" stroke-width="2"><path d="m30.467 7h-27.088v20.861h4.614v5.103l5.608-5.031.081-.072h16.785z" fill="#fff"/><path d="m8.62 17.574h16.19m-16.19 4.75h8.956m-8.956-9.501h16.19" fill="none"/></g><path d="m80.793 36.4c-7.269 0-13.163 5.893-13.163 13.163 0 7.268 5.893 13.162 13.163 13.162 7.269 0 13.164-5.894 13.164-13.162-.001-7.27-5.896-13.163-13.164-13.163z" fill="#fff" stroke="#fff" stroke-width="6"/><path d="m80.793 36.4c-7.269 0-13.163 5.893-13.163 13.163 0 7.268 5.893 13.162 13.163 13.162 7.269 0 13.164-5.894 13.164-13.162-.001-7.27-5.896-13.163-13.164-13.163z" fill="none" stroke="#333" stroke-width="2"/></g><path d="m80.793 40.017a9.545 9.545 0 0 0 0 19.09c5.271 0 9.546-4.274 9.546-9.545s-4.275-9.545-9.546-9.545z" fill="#f15d21"/><path d="m80.779 39.101v10.483h10.656" fill="none" stroke="#fff" stroke-miterlimit="10" stroke-width="2"/></svg>