<svg viewBox="0 0 98 75" xmlns="http://www.w3.org/2000/svg"><path d="m20.23 11.645h57.026v33.009h-57.026z" fill="#d1e0e0"/><g stroke-miterlimit="10"><path d="m79.9 60.633h-62.315a2 2 0 0 1 -2-2v-49.633a2 2 0 0 1 2-2h62.315a2 2 0 0 1 2 2v49.633a2 2 0 0 1 -2 2z" fill="none" stroke="#333" stroke-width="2"/><path d="m34.063 70.192h29.359" fill="none" stroke="#333" stroke-linecap="round" stroke-width="2"/><path d="m39.662 60.776-.986 9.407m19.147-9.407.986 9.407" fill="none" stroke="#333" stroke-width="2"/><path d="m45.489 54.997h6.507" fill="none" stroke="#333" stroke-linecap="round" stroke-width="2"/><path d="m30.467 7h-27.088v20.861h4.614v5.103l5.608-5.031.081-.072h16.785z" fill="none" stroke="#fff" stroke-width="5"/><g stroke="#333" stroke-width="2"><path d="m30.467 7h-27.088v20.861h4.614v5.103l5.608-5.031.081-.072h16.785z" fill="#fff"/><path d="m8.62 17.574h16.19m-16.19 4.75h8.956m-8.956-9.501h16.19" fill="none"/></g></g><path d="m81.902 48.681v-14.321h6.542l-14.334-14.334-14.335 14.334h6.543v14.321" fill="#f15d21"/><path d="m81.902 49.181v-14.821h6.542l-14.334-14.334-14.335 14.334h6.543v14.821" fill="none" stroke="#fff" stroke-miterlimit="10" stroke-width="6"/><path d="m81.902 49.181v-14.821h6.542l-14.334-14.334-14.335 14.334h6.543v14.821m-50.652.18h66.153" fill="none" stroke="#333" stroke-miterlimit="10" stroke-width="2"/></svg>