<svg viewBox="0 0 98 75" xmlns="http://www.w3.org/2000/svg"><path d="m20.59 11.645h57.026v33.009h-57.026z" fill="#d1e0e0"/><g fill="none" stroke="#333" stroke-miterlimit="10" stroke-width="2"><path d="m34.424 70.192h29.358" stroke-linecap="round"/><path d="m40.023 60.776-.986 9.407m19.146-9.407.986 9.407m21.092-9.55h-62.316a2 2 0 0 1 -2-2v-49.633a2 2 0 0 1 2-2h62.315a2 2 0 0 1 2 2v49.633c.001 1.105-.895 2-1.999 2zm-64.235-11.272h66.154"/><path d="m45.85 54.997h6.506" stroke-linecap="round"/></g><circle cx="49.103" cy="28.149" fill="#fff" r="18.547"/><path d="m42.644 32.856-.768.768a.688.688 0 0 1 -1.065-.117 9.815 9.815 0 0 1 -1.572-5.68c.17-5.16 4.366-9.356 9.526-9.526a9.815 9.815 0 0 1 5.68 1.572.688.688 0 0 1 .117 1.065l-.768.768a.681.681 0 0 1 -.838.102 7.384 7.384 0 0 0 -3.859-1.084c-4.089 0-7.435 3.347-7.434 7.435 0 1.412.398 2.732 1.084 3.857a.687.687 0 0 1 -.103.84zm11.149 1.755a.684.684 0 0 0 -.84-.101 7.385 7.385 0 0 1 -3.857 1.083 7.385 7.385 0 0 1 -3.857-1.083.684.684 0 0 0 -.84.101l-.768.768a.688.688 0 0 0 .117 1.065 9.815 9.815 0 0 0 5.349 1.578c1.972 0 3.808-.58 5.349-1.578a.688.688 0 0 0 .117-1.065zm-4.697 6.337c-3.416 0-6.627-1.33-9.043-3.746a12.706 12.706 0 0 1 -3.746-9.043c0-2.796.891-5.454 2.539-7.652a.69.69 0 0 0 -.059-.902l-.752-.752a.686.686 0 0 0 -1.031.068 15.145 15.145 0 0 0 -3.125 9.29c.028 8.327 6.839 15.138 15.166 15.166a15.145 15.145 0 0 0 9.29-3.125.686.686 0 0 0 .068-1.031l-.752-.752a.688.688 0 0 0 -.902-.059 12.705 12.705 0 0 1 -7.653 2.538zm-8.555-23.098a.688.688 0 0 0 .902.059 12.692 12.692 0 0 1 7.652-2.539c2.796 0 5.454.891 7.652 2.539a.69.69 0 0 0 .902-.059l.752-.752a.687.687 0 0 0 -.069-1.032 15.146 15.146 0 0 0 -9.237-3.125 15.146 15.146 0 0 0 -9.237 3.125.687.687 0 0 0 -.069 1.032z" fill="#f15d21"/><g stroke-miterlimit="10"><path d="m30.827 7h-27.088v20.861h4.614v5.103l5.609-5.031.08-.072h16.785z" fill="none" stroke="#fff" stroke-width="5"/><g stroke="#333" stroke-width="2"><path d="m30.827 7h-27.088v20.861h4.614v5.103l5.609-5.031.08-.072h16.785z" fill="#fff"/><path d="m8.98 17.574h16.19m-16.19 4.75h8.957m-8.957-9.501h16.19" fill="none"/></g></g></svg>