<svg baseProfile="tiny" xmlns="http://www.w3.org/2000/svg" viewBox="0 0 167 32.6"><g fill="#384646"><path d="M6.086 15.162H0v-3.125h15.57v3.125H9.485v16.064H6.086V15.162zM20.343 12.036H34.57v3.016H23.715v4.989h8.393v3.016h-8.393v5.154h10.992v3.015H20.343v-19.19zM39.919 12.036h8.553c2.412 0 4.303.713 5.537 1.919 1.014 1.042 1.59 2.467 1.59 4.14v.055c0 3.152-1.891 5.044-4.578 5.811l5.182 7.264h-3.975l-4.715-6.689h-4.221v6.689H39.92V12.036zm8.306 9.512c2.413 0 3.948-1.261 3.948-3.207v-.055c0-2.056-1.481-3.18-3.975-3.18h-4.906v6.442h4.933z"/></g><g fill="#384646"><path d="M92.564 12.036h3.372v9.649l9.128-9.649h4.139l-7.977 8.251 8.334 10.938h-4.085l-6.551-8.635-2.988 3.07v5.565h-3.372V12.036zM113.648 12.036h14.227v3.016H117.02v4.989h8.393v3.016h-8.393v5.154h10.992v3.015h-14.364v-19.19zM133.224 12.036h14.227v3.016h-10.855v4.989h8.393v3.016h-8.393v5.154h10.992v3.015h-14.364v-19.19zM157.515 15.162h-6.086v-3.125H167v3.125h-6.086v16.064h-3.399V15.162z"/></g><path fill="#384646" d="M85.949 28.989c-.384-1.029-.415-1.318-.586-2.403-.156-.987-.192-3.627-.192-3.863 0-5.274-4.07-9.597-9.241-10.001-5.369-.637-10.413.312-14.266-4.123.283 4.697 2.411 7.285 4.255 9.356-1.745-.5-4.136-1.122-6.887-4.135.36 5.764 3.851 8.051 5.894 9.774-1.422.323-3.601.011-6.095-2.147C60.342 26.651 64.265 32.6 75.293 32.6h12.89s-1.437-1.472-2.234-3.611z"/><path fill-rule="evenodd" fill="#BDDB91" d="M70.91 9.652c1.509.091 6.005-.106 9.187 1.339 1.499.681 2.878 1.559 4.047 2.728 1.169 1.169 2.086 2.53 2.728 4.047.042.099.083.199.122.299.518-1.08 1.835-3.861 2.09-4.758 1.605-4.804-.249-10.92-5.145-13.31 1.441 1.379 3.798 3.621 3.489 9.885-.421-1.129-2.851-6.884-9.38-6.764 5.677 1.616 7.283 7.325 7.489 8.436-6.821-6.198-11.363-1.573-17.752-2.71.295.317 1.616.717 3.125.808z"/><path fill="#BDDB91" d="M82.35 22.668c-.03-3.964-3.261-7.18-7.232-7.18-3.989 0-7.234 3.245-7.234 7.234s3.246 7.234 7.234 7.234c1.976 0 3.769-.798 5.076-2.087v1.865h2.158v-7.066h-.002zm-7.232 4.569c-2.49 0-4.514-2.025-4.514-4.514 0-2.49 2.025-4.515 4.514-4.515 2.49 0 4.514 2.025 4.514 4.515.001 2.489-2.024 4.514-4.514 4.514z"/></svg>